# xmcd
#
# Track frame offsets:
#	150
#	21110
#	43214
#	68590
#	84639
#	109848
#	129735
#	152011
#	169557
#	193210
#	216272
#	242072
#	256440
#	271508
#
# Disc length: 4026 seconds
#
# Revision: 1
# Processed by: cddbd v1.5.2PL0 Copyright (c) Steve Scherf et al.
# Submitted via: CDmax 2.0
#
DISCID=c20fb80e
DTITLE=Debi Candlish - Ain't got the Blues
DYEAR=2007
DGENRE=Blues
TTITLE0=Poor Girl
TTITLE1=Dirty Dozen
TTITLE2=Annabelle
TTITLE3=Can't let Go
TTITLE4=Love my Baby
TTITLE5=Kindhearted Man
TTITLE6=Not the One
TTITLE7=Death Knockin'
TTITLE8=Limbo
TTITLE9=Louise
TTITLE10=Write me - Kokomo
TTITLE11=Ain't got the Blues
TTITLE12=Miss Ohio
TTITLE13=Circle
EXTD=
EXTT0=
EXTT1=
EXTT2=
EXTT3=
EXTT4=
EXTT5=
EXTT6=
EXTT7=
EXTT8=
EXTT9=
EXTT10=
EXTT11=
EXTT12=
EXTT13=
PLAYORDER=
